# xmcd
#
# Track frame offsets: 
#        150
#        16370
#        30934
#        52869
#        68030
#        85283
#        100632
#        108449
#        122219
#        136563
#        151263
#        159196
#
# Disc length: 2432 seconds
#
# Revision: 0
# Processed by: cddbd v1.5.2PL0 Copyright (c) Steve Scherf et al.
# Submitted via: ExactAudioCopy v0.95b4
#
DISCID=7f097e0c
DTITLE=Tangothic - Revolucion
DYEAR=2007
DGENRE=Electronic
TTITLE0=Cielo Gris
TTITLE1=Calle
TTITLE2=Fuiste
TTITLE3=Pendiente
TTITLE4=Lonely Gaucho
TTITLE5=Despabilate Amor
TTITLE6=El Verso
TTITLE7=Esperanza
TTITLE8=Adios Muchacha
TTITLE9=Loco Tango
TTITLE10=Mis Recuerdos
TTITLE11=Revolucion
EXTD=
EXTT0=
EXTT1=
EXTT2=
EXTT3=
EXTT4=
EXTT5=
EXTT6=
EXTT7=
EXTT8=
EXTT9=
EXTT10=
EXTT11=
PLAYORDER=
